<?xml version="1.0" encoding="UTF-8" standalone="no"?>
<!-- Created with Inkscape (http://www.inkscape.org/) -->

<svg
   width="100mm"
   height="100mm"
   viewBox="0 0 100 100"
   version="1.1"
   id="svg18469"
   inkscape:export-filename="bitmap.svg"
   inkscape:export-xdpi="130.048"
   inkscape:export-ydpi="130.048"
   xmlns:inkscape="http://www.inkscape.org/namespaces/inkscape"
   xmlns:sodipodi="http://sodipodi.sourceforge.net/DTD/sodipodi-0.dtd"
   xmlns="http://www.w3.org/2000/svg"
   xmlns:svg="http://www.w3.org/2000/svg">
  <sodipodi:namedview
     id="namedview18471"
     pagecolor="#ffffff"
     bordercolor="#000000"
     borderopacity="0.25"
     inkscape:showpageshadow="2"
     inkscape:pageopacity="0.0"
     inkscape:pagecheckerboard="0"
     inkscape:deskcolor="#d1d1d1"
     inkscape:document-units="mm"
     showgrid="false" />
  <defs
     id="defs18466" />
  <g
     inkscape:label="Layer 1"
     inkscape:groupmode="layer"
     id="layer1">
    <path
       d="M 31.074656,89.418734 C 30.034935,88.543885 30.048985,88.645411 29.949152,81.27118 L 29.856262,74.404866 27.71838,73.10161 C 19.687553,68.205976 16.753477,57.999972 16.750574,34.950899 l -4.36e-4,-3.364676 -1.719595,-0.113301 C 3.7544504,30.730348 0.35337827,20.249366 9.4550385,14.29116 18.186637,8.5752394 27.314259,8.6904002 32.109449,14.577098 c 2.342279,2.875383 2.47985,3.580138 2.674175,13.699777 0.374307,19.491564 0.914489,20.688294 8.727651,19.336103 7.746656,-1.340705 14.514899,-0.996261 21.636955,1.101085 8.36211,2.462557 10.25057,4.190607 16.570684,15.163175 4.622639,8.025497 7.515785,11.658001 11.932865,14.982376 4.18676,3.151058 1.916765,6.352438 -4.764187,6.719017 -4.686765,0.257201 -9.712103,-1.372371 -14.173975,-4.596139 -0.992319,-0.716945 -1.849794,-1.30355 -1.905501,-1.30355 -0.05573,0 -0.101899,1.903184 -0.10248,4.229267 -0.0019,6.395964 0.571009,5.992482 -8.511035,5.994143 l -6.746152,0.0012 -0.782897,-0.729995 -0.78287,-0.730033 -0.09289,-6.380745 -0.09289,-6.380744 -4.313039,-0.05001 -4.313039,-0.05001 -0.05573,6.277618 c -0.07781,8.77323 0.709134,8.043685 -8.676647,8.043685 h -6.687452 z m 10.40115,-11.273529 c 9.57e-4,-8.840254 -0.991737,-8.040285 9.978011,-8.040285 10.773135,0 9.797625,-0.791139 9.873508,8.007115 l 0.0537,6.214402 h 2.874362 2.874362 l 0.0011,-5.716487 c 0.0017,-9.723132 1.511801,-11.016581 6.739563,-5.772671 3.859016,3.870971 7.929658,6.33511 11.447113,6.929373 0.927463,0.156869 0.972315,-0.01758 0.192168,-0.750115 C 83.343455,76.985182 80.038584,72.261145 76.60912,66.293922 71.568773,57.523819 70.38669,56.310659 65.234667,54.62 58.209774,52.314741 52.759358,51.868985 45.385324,52.996658 31.728977,55.085056 29.236062,51.219789 29.20233,27.905056 29.190821,19.218075 28.697244,17.787683 25.148931,16.133547 22.2874,14.799581 16.036668,16.37885 11.7915,19.508272 c -4.3847388,3.232364 -1.295561,6.545389 5.98784,6.421769 4.527278,-0.07697 4.417517,-0.304691 4.578748,9.504062 0.37364,22.727445 2.13251,29.102446 9.224027,33.432555 4.249609,2.59481 3.944248,1.866633 3.944248,9.405761 v 6.054018 h 2.974457 2.974426 l 7.55e-4,-6.181232 z"
       style="fill:#000000;stroke-width:0.185903"
       id="path16273"
       inkscape:export-filename="path16273.svg"
       inkscape:export-xdpi="169.187"
       inkscape:export-ydpi="169.187" />
  </g>
</svg>
